<?xml version="1.0" encoding="UTF-8"?>
<svg xmlns="http://www.w3.org/2000/svg" xmlns:xlink="http://www.w3.org/1999/xlink" viewBox="0 0 480 480" width="480px" height="480px">
<g id="surface110435273">
<path style=" stroke:none;fill-rule:nonzero;fill:rgb(89.803922%,34.509805%,7.058824%);fill-opacity:1;" d="M 240.003906 48 C 133.96875 48 48 133.96875 48 240.003906 C 48 329.972656 109.953125 405.253906 193.476562 426.085938 C 192.578125 423.496094 192.003906 420.488281 192.003906 416.757812 L 192.003906 383.941406 C 184.210938 383.941406 171.15625 383.941406 167.875 383.941406 C 154.738281 383.941406 143.058594 378.292969 137.394531 367.796875 C 131.105469 356.132812 130.019531 338.292969 114.433594 327.382812 C 109.808594 323.75 113.328125 319.605469 118.65625 320.164062 C 128.5 322.949219 136.660156 329.703125 144.339844 339.71875 C 151.988281 349.75 155.585938 352.023438 169.875 352.023438 C 176.804688 352.023438 187.171875 351.621094 196.929688 350.085938 C 202.179688 336.757812 211.25 324.484375 222.339844 318.695312 C 158.402344 312.117188 127.890625 280.308594 127.890625 237.125 C 127.890625 218.53125 135.808594 200.546875 149.265625 185.394531 C 144.851562 170.355469 139.296875 139.683594 150.960938 128.003906 C 179.730469 128.003906 197.125 146.660156 201.300781 151.699219 C 215.636719 146.785156 231.378906 144.003906 247.925781 144.003906 C 264.5 144.003906 280.308594 146.785156 294.675781 151.730469 C 298.804688 146.722656 316.214844 128.003906 345.046875 128.003906 C 356.757812 139.699219 351.140625 170.5 346.679688 185.507812 C 360.054688 200.628906 367.925781 218.5625 367.925781 237.125 C 367.925781 280.277344 337.460938 312.070312 273.621094 318.675781 C 291.1875 327.847656 304.003906 353.605469 304.003906 373.015625 L 304.003906 416.757812 C 304.003906 418.421875 303.636719 419.625 303.445312 421.046875 C 378.261719 394.824219 432.007812 323.78125 432.007812 240.003906 C 432.007812 133.96875 346.039062 48 240.003906 48 Z M 240.003906 48 "/>
</g>
</svg>
