<?xml version="1.0" encoding="UTF-8"?>
<svg xmlns="http://www.w3.org/2000/svg" xmlns:xlink="http://www.w3.org/1999/xlink" viewBox="0 0 480 480" width="480px" height="480px">
<g id="surface110201705">
<path style=" stroke:none;fill-rule:nonzero;fill:rgb(89.803922%,34.509805%,7.058824%);fill-opacity:1;" d="M 144.003906 400.007812 L 64 400.007812 L 64 160.003906 L 144.003906 160.003906 Z M 104.019531 128.003906 C 81.890625 128.003906 64 110.066406 64 87.984375 C 64 65.90625 81.921875 48 104.019531 48 C 126.066406 48 144.003906 65.9375 144.003906 87.984375 C 144.003906 110.066406 126.066406 128.003906 104.019531 128.003906 Z M 432.007812 400.007812 L 355.09375 400.007812 L 355.09375 283.203125 C 355.09375 255.347656 354.566406 219.523438 315.109375 219.523438 C 275.0625 219.523438 268.902344 249.859375 268.902344 281.1875 L 268.902344 400.007812 L 192.003906 400.007812 L 192.003906 159.828125 L 265.828125 159.828125 L 265.828125 192.644531 L 266.867188 192.644531 C 277.140625 173.761719 302.246094 153.859375 339.6875 153.859375 C 417.605469 153.859375 432.007812 203.605469 432.007812 268.277344 C 432.007812 268.277344 432.007812 400.007812 432.007812 400.007812 Z M 432.007812 400.007812 "/>
</g>
</svg>
