<?xml version="1.0" encoding="UTF-8"?>
<svg xmlns="http://www.w3.org/2000/svg" xmlns:xlink="http://www.w3.org/1999/xlink" viewBox="0 0 480 480" width="480px" height="480px">
<g id="surface110451973">
<path style=" stroke:none;fill-rule:nonzero;fill:rgb(89.803922%,34.509805%,7.058824%);fill-opacity:1;" d="M 240.003906 48 C 133.96875 48 48 133.96875 48 240.003906 C 48 276.023438 58.117188 309.605469 75.375 338.414062 L 49.71875 432.007812 L 145.316406 406.914062 C 173.273438 422.808594 205.546875 432.007812 240.003906 432.007812 C 346.039062 432.007812 432.007812 346.039062 432.007812 240.003906 C 432.007812 133.96875 346.039062 48 240.003906 48 Z M 174.285156 150.441406 C 177.40625 150.441406 180.609375 150.421875 183.378906 150.566406 C 186.800781 150.644531 190.527344 150.894531 194.097656 158.785156 C 198.335938 168.160156 207.570312 191.683594 208.753906 194.066406 C 209.9375 196.449219 210.777344 199.257812 209.128906 202.378906 C 207.5625 205.578125 206.746094 207.515625 204.441406 210.347656 C 202.058594 213.097656 199.445312 216.519531 197.285156 218.597656 C 194.902344 220.980469 192.4375 223.597656 195.191406 228.347656 C 197.941406 233.101562 207.5 248.679688 221.628906 261.253906 C 239.789062 277.480469 255.113281 282.464844 259.878906 284.847656 C 264.648438 287.234375 267.410156 286.863281 270.160156 283.660156 C 272.992188 280.542969 282.054688 269.835938 285.253906 265.066406 C 288.375 260.300781 291.558594 261.125 295.878906 262.691406 C 300.265625 264.261719 323.644531 275.777344 328.410156 278.160156 C 333.179688 280.546875 336.304688 281.726562 337.507812 283.660156 C 338.738281 285.660156 338.738281 295.183594 334.789062 306.285156 C 330.835938 317.375 311.429688 328.097656 302.722656 328.851562 C 293.941406 329.664062 285.742188 332.796875 245.628906 317.003906 C 197.246094 297.949219 166.730469 248.390625 164.347656 245.191406 C 161.960938 242.070312 144.972656 219.425781 144.972656 196.066406 C 144.972656 172.625 157.261719 161.144531 161.566406 156.378906 C 165.949219 151.609375 171.085938 150.441406 174.285156 150.441406 Z M 174.285156 150.441406 "/>
</g>
</svg>
